<?xml version="1.0" encoding="UTF-8"?><svg id="Layer_1" xmlns="http://www.w3.org/2000/svg" viewBox="0 0 887.3 887.3"><defs><style>.cls-1{fill:#002557;}.cls-2{fill:#fff;}</style></defs><rect class="cls-1" width="887.3" height="887.3"/><path class="cls-2" d="M614.8,208.29l-145.71,177.95,118.42,190.13h-14.16l-116.74-187.43,.45-6.98,146.18-178.52-159.59-66.94-251.33,105.41v428.28h136.74V271.4h12.02v398.8h353.89V241.92l-80.17-33.63Zm-230.9,63.11h12.02v115.2l27.03-36.86,62.43-78.34h15.37l-68.25,85.64-35.57,48.52-4.85,2.46h-2.17l-6.01-6.01v-130.61Zm124.31,304.98l-86.21-141.67-26.08,31.52v110.15h-12.02v-112.31l1.38-3.83,32.83-39.69,9.76,.71,94.4,155.12h-14.07Zm173.51-241.33c-3.9-1.12-8.46-1.7-13.65-1.7-12.61,0-22.39,3.91-29.88,11.96-7.5,8.06-11.31,20.25-11.31,36.24v35.71c0,15.99,3.8,28.18,11.31,36.24,7.49,8.05,17.26,11.96,29.88,11.96,5.12,0,9.65-.65,13.65-1.95v12.45c-4.22,1-8.77,1.52-13.65,1.52-15.91,0-28.92-5.31-38.67-15.78-9.64-10.35-14.53-25.3-14.53-44.43v-35.71c0-19.13,4.89-34.08,14.53-44.43,9.75-10.47,22.76-15.78,38.67-15.78,4.95,0,9.5,.46,13.65,1.35v12.37Zm0-44.03c-4.35-.47-8.9-.71-13.65-.71-14.22,0-27.16,2.42-38.48,7.18-11.2,4.72-20.86,11.73-28.71,20.86-7.94,9.23-14.2,20.87-18.61,34.59-4.46,13.9-6.72,30.07-6.72,48.06s2.26,34.24,6.71,47.7c4.39,13.28,10.62,24.47,18.53,33.27,7.83,8.71,17.48,15.37,28.67,19.79,11.35,4.48,24.34,6.75,38.61,6.75,4.75,0,9.3-.27,13.65-.79v12.05c-4.4,.47-8.93,.75-13.65,.75-15.79,0-30.26-2.56-43.02-7.59-12.94-5.11-24.11-12.82-33.19-22.94-9.03-10.04-16.1-22.67-21.01-37.53-4.85-14.67-7.31-31.99-7.31-51.47s2.46-36.66,7.3-51.74c4.9-15.26,11.94-28.3,20.93-38.75,9.07-10.55,20.22-18.66,33.16-24.1,12.8-5.39,27.32-8.12,43.15-8.12,4.73,0,9.26,.26,13.65,.69v12.04Z"/></svg>